<svg width="32" height="32" viewBox="0 0 32 32" xmlns="http://www.w3.org/2000/svg">
    <g fill="#BD2525" fill-rule="evenodd">
        <path d="M8 19.333a4 4 0 1 1 0 8 4 4 0 0 1 0-8zM8 22a1.333 1.333 0 1 0 0 2.667A1.333 1.333 0 0 0 8 22zM23.333 19.333a4 4 0 1 1 0 8 4 4 0 0 1 0-8zm0 2.667a1.333 1.333 0 1 0 0 2.667 1.333 1.333 0 0 0 0-2.667z"/>
        <path d="M22 6v18.667H10.667V22h8.666V8.667H2.667V22h2.666v2.667H0V6z"/>
        <path d="m27.044 10.667.4.529 4.286 5.666.27.357v7.448h-5.46V22h2.793v-3.885l-3.616-4.782H22v10h-2.667V10.667z"/>
    </g>
</svg>
