<svg width="32" height="32" viewBox="0 0 32 32" xmlns="http://www.w3.org/2000/svg">
    <g fill="#BD2525" fill-rule="evenodd">
        <path d="m17.886 4 11.172 11.173a3.733 3.733 0 0 1 0 5.264l-8.606 8.606a3.733 3.733 0 0 1-5.282.001L4.391 18.277 4 17.887V4h13.886zM16.78 6.667H6.667V16.78l10.389 10.377c.16.16.366.265.587.3l.168.013c.283 0 .554-.112.755-.313l8.601-8.601a1.066 1.066 0 0 0 .003-1.501L16.78 6.666z"/>
        <path d="M12.333 14a1.667 1.667 0 1 0 0-3.333 1.667 1.667 0 0 0 0 3.333z"/>
    </g>
</svg>
