<svg id="Vrstva_1" data-name="Vrstva 1" xmlns="http://www.w3.org/2000/svg" viewBox="0 0 24 24"><defs><style>.cls-1,.cls-2{fill:none;stroke:#b52121;stroke-miterlimit:10;stroke-width:2px;}.cls-2{stroke-linecap:round;}</style></defs><path class="cls-1" d="M7.68,4.93a1.8,1.8,0,0,1,2.66-2.44c1.33,1.44,1.33,4.11,1.33,4.11A6.87,6.87,0,0,1,7.68,4.93Z"/><path class="cls-1" d="M16.2,4.93a1.8,1.8,0,0,0-2.66-2.44C12.21,3.93,12.21,6.6,12.21,6.6A6.87,6.87,0,0,0,16.2,4.93Z"/><rect class="cls-2" x="4.7" y="6.93" width="14.59" height="14.59" rx="0.7"/><line class="cls-2" x1="9.44" y1="14.32" x2="14.56" y2="14.32"/><line class="cls-2" x1="4.7" y1="14.32" x2="6.62" y2="14.32"/><line class="cls-2" x1="17.38" y1="14.32" x2="19.3" y2="14.32"/><line class="cls-2" x1="12" y1="21.52" x2="12" y2="19.6"/><line class="cls-2" x1="12" y1="8.94" x2="12" y2="7.03"/><line class="cls-2" x1="12" y1="16.89" x2="12" y2="11.76"/></svg>