<svg width="32" height="32" viewBox="0 0 32 32" xmlns="http://www.w3.org/2000/svg">
    <g fill="#BD2525" fill-rule="evenodd">
        <path d="m16 1.016.786.573 3.15 2.298 3.899-.007.972-.002.299.925 1.196 3.709 3.16 2.288.788.57-.302.924L28.735 16l1.213 3.706.302.924-.788.57-3.16 2.287-1.196 3.71-.299.925-.972-.002-3.9-.008-3.15 2.299-.785.573-.786-.573-3.15-2.299-3.899.008-.972.002-.299-.926-1.197-3.71-3.16-2.286-.787-.57.302-.924L3.265 16l-1.213-3.706-.302-.924.788-.57 3.159-2.288 1.197-3.709.299-.925.972.002 3.898.007 3.151-2.298.786-.573zm0 3.3-2.716 1.983-.353.257-.436-.001-3.362-.007-1.033 3.2-.134.415-.353.256-2.724 1.97 1.045 3.197.135.414-.135.414-1.045 3.195 2.724 1.972.353.256.134.415 1.033 3.2 3.362-.007h.436l.353.256 2.715 1.982 2.717-1.982.353-.256h.436l3.36.007 1.035-3.2.134-.415.353-.256 2.724-1.972-1.045-3.195-.135-.414.135-.414 1.045-3.197-2.724-1.97-.353-.256-.134-.415-1.034-3.2-3.361.007h-.436l-.353-.256L16 4.316z"/>
        <path d="m20.39 11.724 1.886 1.885-7.61 7.61-.942-.943-3.333-3.333 1.885-1.886 2.39 2.39z"/>
    </g>
</svg>
